<mxfile host="app.diagrams.net" modified="2023-12-04T03:54:49.478Z" agent="Mozilla/5.0 (Macintosh; Intel Mac OS X 10_15_7) AppleWebKit/537.36 (KHTML, like Gecko) Chrome/119.0.0.0 Safari/537.36" etag="WPHWUc6_wsEv7R_iAmHD" version="22.1.5" type="github">
  <diagram id="R2lEEEUBdFMjLlhIrx00" name="Page-1">
    <mxGraphModel dx="1804" dy="610" grid="1" gridSize="10" guides="1" tooltips="1" connect="1" arrows="1" fold="1" page="1" pageScale="1" pageWidth="850" pageHeight="1100" math="0" shadow="0" extFonts="Permanent Marker^https://fonts.googleapis.com/css?family=Permanent+Marker">
      <root>
        <mxCell id="0" />
        <mxCell id="1" parent="0" />
        <mxCell id="kGty0lGPng4yZn2d_2WX-1" value="&lt;font style=&quot;font-size: 21px;&quot;&gt;顾客&lt;/font&gt;" style="rounded=0;whiteSpace=wrap;html=1;" vertex="1" parent="1">
          <mxGeometry x="140" y="230" width="110" height="50" as="geometry" />
        </mxCell>
        <mxCell id="kGty0lGPng4yZn2d_2WX-3" value="&lt;font style=&quot;font-size: 21px;&quot;&gt;身份证号&lt;/font&gt;" style="ellipse;whiteSpace=wrap;html=1;" vertex="1" parent="1">
          <mxGeometry x="70" y="20" width="110" height="60" as="geometry" />
        </mxCell>
        <mxCell id="kGty0lGPng4yZn2d_2WX-4" value="" style="endArrow=none;html=1;rounded=0;exitX=0.5;exitY=0;exitDx=0;exitDy=0;entryX=0.791;entryY=0.933;entryDx=0;entryDy=0;entryPerimeter=0;strokeWidth=2;" edge="1" parent="1" source="kGty0lGPng4yZn2d_2WX-1" target="kGty0lGPng4yZn2d_2WX-3">
          <mxGeometry width="50" height="50" relative="1" as="geometry">
            <mxPoint x="230" y="200" as="sourcePoint" />
            <mxPoint x="280" y="150" as="targetPoint" />
          </mxGeometry>
        </mxCell>
        <mxCell id="kGty0lGPng4yZn2d_2WX-5" value="&lt;span style=&quot;font-size: 21px;&quot;&gt;房间&lt;/span&gt;" style="rounded=0;whiteSpace=wrap;html=1;" vertex="1" parent="1">
          <mxGeometry x="880" y="230" width="110" height="50" as="geometry" />
        </mxCell>
        <mxCell id="kGty0lGPng4yZn2d_2WX-6" value="&lt;font style=&quot;font-size: 21px;&quot;&gt;姓名&lt;/font&gt;" style="ellipse;whiteSpace=wrap;html=1;" vertex="1" parent="1">
          <mxGeometry x="220" y="20" width="110" height="60" as="geometry" />
        </mxCell>
        <mxCell id="kGty0lGPng4yZn2d_2WX-7" value="&lt;font style=&quot;font-size: 21px;&quot;&gt;性别&lt;/font&gt;" style="ellipse;whiteSpace=wrap;html=1;" vertex="1" parent="1">
          <mxGeometry x="360" y="70" width="110" height="60" as="geometry" />
        </mxCell>
        <mxCell id="kGty0lGPng4yZn2d_2WX-8" value="&lt;font style=&quot;font-size: 21px;&quot;&gt;年龄&lt;/font&gt;" style="ellipse;whiteSpace=wrap;html=1;" vertex="1" parent="1">
          <mxGeometry x="-70" y="70" width="110" height="60" as="geometry" />
        </mxCell>
        <mxCell id="kGty0lGPng4yZn2d_2WX-9" value="" style="endArrow=none;html=1;rounded=0;entryX=0;entryY=1;entryDx=0;entryDy=0;strokeWidth=2;exitX=0.5;exitY=0;exitDx=0;exitDy=0;" edge="1" parent="1" source="kGty0lGPng4yZn2d_2WX-1" target="kGty0lGPng4yZn2d_2WX-6">
          <mxGeometry width="50" height="50" relative="1" as="geometry">
            <mxPoint x="220" y="220" as="sourcePoint" />
            <mxPoint x="300" y="200" as="targetPoint" />
          </mxGeometry>
        </mxCell>
        <mxCell id="kGty0lGPng4yZn2d_2WX-10" value="" style="endArrow=none;html=1;rounded=0;entryX=0.5;entryY=0;entryDx=0;entryDy=0;strokeWidth=2;exitX=0;exitY=0.5;exitDx=0;exitDy=0;" edge="1" parent="1" source="kGty0lGPng4yZn2d_2WX-7" target="kGty0lGPng4yZn2d_2WX-1">
          <mxGeometry width="50" height="50" relative="1" as="geometry">
            <mxPoint x="310" y="289" as="sourcePoint" />
            <mxPoint x="339" y="240" as="targetPoint" />
          </mxGeometry>
        </mxCell>
        <mxCell id="kGty0lGPng4yZn2d_2WX-11" value="" style="endArrow=none;html=1;rounded=0;exitX=0.5;exitY=0;exitDx=0;exitDy=0;entryX=1;entryY=0.5;entryDx=0;entryDy=0;strokeWidth=2;" edge="1" parent="1" source="kGty0lGPng4yZn2d_2WX-1" target="kGty0lGPng4yZn2d_2WX-8">
          <mxGeometry width="50" height="50" relative="1" as="geometry">
            <mxPoint x="111" y="294" as="sourcePoint" />
            <mxPoint x="80" y="250" as="targetPoint" />
          </mxGeometry>
        </mxCell>
        <mxCell id="kGty0lGPng4yZn2d_2WX-12" value="&lt;font style=&quot;font-size: 21px;&quot;&gt;入住&lt;/font&gt;" style="rhombus;whiteSpace=wrap;html=1;" vertex="1" parent="1">
          <mxGeometry x="810" y="215" width="130" height="80" as="geometry" />
        </mxCell>
        <mxCell id="kGty0lGPng4yZn2d_2WX-13" value="&lt;span style=&quot;font-size: 21px;&quot;&gt;联系方式&lt;/span&gt;" style="ellipse;whiteSpace=wrap;html=1;" vertex="1" parent="1">
          <mxGeometry x="-120" y="150" width="110" height="60" as="geometry" />
        </mxCell>
        <mxCell id="kGty0lGPng4yZn2d_2WX-14" value="" style="endArrow=none;html=1;rounded=0;exitX=0.5;exitY=0;exitDx=0;exitDy=0;entryX=1;entryY=0.5;entryDx=0;entryDy=0;strokeWidth=2;" edge="1" parent="1" source="kGty0lGPng4yZn2d_2WX-1" target="kGty0lGPng4yZn2d_2WX-13">
          <mxGeometry width="50" height="50" relative="1" as="geometry">
            <mxPoint x="225" y="400" as="sourcePoint" />
            <mxPoint x="70" y="270" as="targetPoint" />
          </mxGeometry>
        </mxCell>
        <mxCell id="kGty0lGPng4yZn2d_2WX-15" value="&lt;span style=&quot;font-size: 21px;&quot;&gt;联系方式&lt;/span&gt;" style="ellipse;whiteSpace=wrap;html=1;" vertex="1" parent="1">
          <mxGeometry x="390" y="140" width="110" height="60" as="geometry" />
        </mxCell>
        <mxCell id="kGty0lGPng4yZn2d_2WX-16" value="" style="endArrow=none;html=1;rounded=0;entryX=0.5;entryY=0;entryDx=0;entryDy=0;strokeWidth=2;exitX=0;exitY=0.5;exitDx=0;exitDy=0;" edge="1" parent="1" source="kGty0lGPng4yZn2d_2WX-15" target="kGty0lGPng4yZn2d_2WX-1">
          <mxGeometry width="50" height="50" relative="1" as="geometry">
            <mxPoint x="555" y="210" as="sourcePoint" />
            <mxPoint x="390" y="340" as="targetPoint" />
          </mxGeometry>
        </mxCell>
        <mxCell id="kGty0lGPng4yZn2d_2WX-17" value="" style="shape=stencil(fZbdcgIhDIWfZm8zQAg/17Z9j85U606tdqz9e/tmZ0c0uJ47xP0I5JwEBl59bp8/1kNwn6fj4W39M76ctgM/DCGM++36OJ50NPDjwKvN4bh+PR6+9i/z74/n6ctp9H74nlb4nbmSKZeJCu5vngmZ6jzzNAO7cX8FVKEsBuBKrgKg9oAE8gkCbLeUhEoEQKSUDZDLeWYRKIl8MEDRmHwfyBrBG6Amyu4+kDxxMoB3jhwgYu7TVAsVkFcWCs4CTBEoF4RctKeOxHIf8IXYpikHikAIf+MNUW94AGSSaoAoFIE3AlOyeWU+p2E5S9yfQZcQILVuQOwZdJNoS9Ls3wA5u2XZTIHECqeJ9kDpSaauRiNVcAY1QhdBzeLBli5WazpkSsBLV25uRaqWRyFawTQzRRIQYirJzq5atkBqLfouwqUxLBepthWb10vrWZY6UOAeyKCCtDV625mm9gmUC4Wc3VLJMMIE1BsA2FW9JraVlQB7n3c9oMKhCLEvIM1zBPZ25/umNQ1tVEC2G+fFCC8g398O2hNQuQlVu752DBfA+q0ptnqO5JFmeuIuo9DY7KjY71UxdJV4EntifPWorW++R/dC4t7V3DlIB5cHx2bc7eb3yvX//QNFp+bHDT/+Aw==);lineShape=1;" vertex="1" parent="1">
          <mxGeometry x="222.86796084247567" y="359.87531245851915" width="4.672539772115442" height="4.665236216357698" as="geometry" />
        </mxCell>
      </root>
    </mxGraphModel>
  </diagram>
</mxfile>
